<mxfile host="app.diagrams.net" modified="2023-12-20T18:23:58.503Z" agent="Mozilla/5.0 (Windows NT 10.0; Win64; x64) AppleWebKit/537.36 (KHTML, like Gecko) Chrome/119.0.0.0 Safari/537.36 OPR/105.0.0.0" version="22.1.11" etag="xDiE52RyiOr8h2rbOSgr" type="github">
  <diagram name="Страница — 1" id="4D_kD6sxxnR2VOg6lVJk">
    <mxGraphModel>
      <root>
        <mxCell id="0" />
        <mxCell id="1" parent="0" />
      </root>
    </mxGraphModel>
  </diagram>
</mxfile>
